<svg id="Layer_1" data-name="Layer 1" xmlns="http://www.w3.org/2000/svg" viewBox="0 0 334.97 194.17"><defs><style>.cls-1{fill:#fff;}</style></defs><title>logo-white</title><g id="Shape_5" data-name="Shape 5"><path class="cls-1" d="M403.18,455.41c-15.38-6.75-14.9-28.64-10.47-44.85a292.39,292.39,0,0,1,88.15-141.32,32.21,32.21,0,0,1,5.92-4.42c13.37-7.16,29.88,7.12,31.55,22.2s-5.9,29.41-11.8,43.38A215.78,215.78,0,0,0,489.59,411c-.08,5.3,1.35,12.18,6.61,12.85,3.84.49,7-2.92,9.21-6.08A144.26,144.26,0,0,0,530.3,356c.88-5.81,10.09-6.37,13.87-1.87s3.59,11,3.2,16.88l-4,60.77c11-2.59,15-16,15.88-27.3s1.47-24.31,10.57-31a412.27,412.27,0,0,1,12.1,46c11.93-7,11.62-23.89,12.6-37.7s10.36-31,23.71-27.31c7.21,2,11.5,10,11.26,17.5s-4.06,14.37-8.51,20.39c-4.78,6.46-10.08,16.5-3.55,21.19,7.21,5.18,15.17-5.28,18.63-13.46,3.72-8.77,8.82-17.58,17.14-22.21s20.53-3.36,25.34,4.87c5.54,9.49-.39,23.75,7.51,31.4,9.71,9.41,25.61-3,39-1-9.77,19.32-41.57,21.46-53.84,3.61-1,10.68-5.57,22.4-15.59,26.25s-23.61-7.16-18.38-16.52a44.81,44.81,0,0,1-29.61-.75c2.6,5.13-2.49,11.44-8.18,12.31s-11.23-1.84-16.34-4.48c-6.86-3.54-14.72-8.68-14.51-16.4L560,435c-2.08,4.37-4.54,9.1-9,10.93-9.75,4-18.29-8.8-18.57-19.33s2.53-22.34-3.87-30.71l-16.16,38.66c-4.45,10.65-21.69,9-28.5-.28s-6.25-21.93-5.4-33.44a138.57,138.57,0,0,1-44.4,47.84c-9.2,6.08-20.85,11.14-30.94,6.71M419,442.66c22.26-16.28,45.46-33.67,56.82-58.81,4.55-10.06,7-20.94,9.37-31.72l7.51-33.8c1.06-4.77,5.54-24.77,5.53-34.24a3.67,3.67,0,0,0-5.08-3.41C482.08,285.31,473,294,465,303a281.86,281.86,0,0,0-61.82,112.79c-1.84,6.64-3.4,13.87-.82,20.26s11.08,10.71,16.64,6.65m240.9-48.61-6.28,19.07c-1.81,5.51-3.6,11.68-1.15,16.94a54.35,54.35,0,0,0,13.71-41.66c-3-1.06-5.29,2.65-6.28,5.65M617,366.83a31.69,31.69,0,0,0-9.21,27.33A26.25,26.25,0,0,0,617,366.83" transform="translate(-390.02 -262.91)"/></g></svg>